<svg width="34" height="33" viewBox="0 0 34 33" fill="none" xmlns="http://www.w3.org/2000/svg">
<path d="M1.97265 0.767725C1.84437 0.230545 1.30491 -0.100932 0.767725 0.0273498C0.230545 0.155632 -0.100932 0.695095 0.0273498 1.23227L1.97265 0.767725ZM33.7071 25.7071C34.0976 25.3166 34.0976 24.6834 33.7071 24.2929L27.3431 17.9289C26.9526 17.5384 26.3195 17.5384 25.9289 17.9289C25.5384 18.3195 25.5384 18.9526 25.9289 19.3431L31.5858 25L25.9289 30.6569C25.5384 31.0474 25.5384 31.6805 25.9289 32.0711C26.3195 32.4616 26.9526 32.4616 27.3431 32.0711L33.7071 25.7071ZM0.0273498 1.23227C2.00166 9.49969 11.3576 26 33 26V24C12.6125 24 3.81924 8.50031 1.97265 0.767725L0.0273498 1.23227Z" fill="#FC5230"/>
</svg>
