<svg width="24" height="24" viewBox="0 0 24 24" fill="none" xmlns="http://www.w3.org/2000/svg">
<path d="M19 19V9.79899L12 4.27699L5 9.79899V19H19ZM21 20C21 20.2652 20.8946 20.5196 20.7071 20.7071C20.5196 20.8946 20.2652 21 20 21H4C3.73478 21 3.48043 20.8946 3.29289 20.7071C3.10536 20.5196 3 20.2652 3 20V9.31399C2.99994 9.16294 3.0341 9.01384 3.09991 8.87788C3.16573 8.74193 3.26149 8.62264 3.38 8.52899L11.38 2.21799C11.5565 2.07848 11.775 2.00259 12 2.00259C12.225 2.00259 12.4435 2.07848 12.62 2.21799L20.62 8.52799C20.7386 8.62175 20.8345 8.74119 20.9003 8.87733C20.9661 9.01348 21.0002 9.16277 21 9.31399V20ZM7 12H9C9 12.7956 9.31607 13.5587 9.87868 14.1213C10.4413 14.6839 11.2044 15 12 15C12.7956 15 13.5587 14.6839 14.1213 14.1213C14.6839 13.5587 15 12.7956 15 12H17C17 13.3261 16.4732 14.5978 15.5355 15.5355C14.5979 16.4732 13.3261 17 12 17C10.6739 17 9.40215 16.4732 8.46447 15.5355C7.52678 14.5978 7 13.3261 7 12Z" fill="black"/>
</svg>
