<svg width="24" height="24" viewBox="0 0 24 24" fill="none" xmlns="http://www.w3.org/2000/svg">
<path fill-rule="evenodd" clip-rule="evenodd" d="M7.67 2H16.34C19.73 2 22 4.38 22 7.92V16.09C22 19.62 19.73 22 16.34 22H7.67C4.28 22 2 19.62 2 16.09V7.92C2 4.38 4.28 2 7.67 2ZM11.995 9.06458C11.516 9.06458 11.125 8.67158 11.125 8.18958C11.125 7.70758 11.52 7.31458 12.005 7.31458C12.488 7.31458 12.88 7.70758 12.88 8.18958C12.88 8.67158 12.488 9.06458 11.995 9.06458ZM11.9941 10.4874C12.4761 10.4874 12.8691 10.8804 12.8691 11.3624V15.7824C12.8691 16.2644 12.4761 16.6574 11.9941 16.6574C11.5121 16.6574 11.1191 16.2644 11.1191 15.7824V11.3624C11.1191 10.8804 11.5121 10.4874 11.9941 10.4874Z" fill="black"/>
</svg>
