<?xml version="1.0" standalone="no"?>
<!DOCTYPE svg PUBLIC "-//W3C//DTD SVG 1.1//EN" "http://www.w3.org/Graphics/SVG/1.1/DTD/svg11.dtd">
<svg xmlns="http://www.w3.org/2000/svg">
<metadata>Copyright (C) 2022 by original authors @ fontello.com</metadata>
<defs>
<font id="icon" horiz-adv-x="1000" >
<font-face font-family="icon" font-weight="400" font-stretch="normal" units-per-em="1000" ascent="850" descent="-150" />
<missing-glyph horiz-adv-x="1000" />
<glyph glyph-name="facebook-logo" unicode="&#xe800;" d="M979 347c0 265-214 479-479 479-265 0-479-214-479-479 0-239 175-437 404-473v335h-121v138h121v106c0 120 72 186 181 186 53 0 107-9 107-9v-118h-60c-60 0-78-37-78-75v-90h133l-21-138h-112v-335c229 36 404 234 404 473z" horiz-adv-x="1000" />

<glyph glyph-name="google-logo" unicode="&#xe801;" d="M960 339c0 34-3 67-9 98h-451v-185h258c-11-60-45-111-96-145v-120h155c91 83 143 206 143 352z m-460-468c129 0 238 43 317 116l-155 120c-43-29-97-46-162-46-125 0-230 85-268 198h-160v-124c79-157 241-264 428-264z m-268 388c-10 29-15 59-15 91 0 32 5 62 15 91v124h-160c-33-64-51-138-51-215 0-77 18-150 51-215l160 124z m268 380c70 0 134-25 183-72l138 137c-83 78-192 125-321 125-187 0-349-107-428-264l160-124c38 113 143 198 268 198z" horiz-adv-x="1000" />

<glyph glyph-name="ic_add" unicode="&#xe802;" d="M458 392v250h84v-250h250v-84h-250v-250h-84v250h-250v84h250z" horiz-adv-x="1000" />

<glyph glyph-name="ic_arrow_down_small" unicode="&#xe803;" d="M500 225l-177 177 59 59 118-118 118 118 59-59-177-177z" horiz-adv-x="1000" />

<glyph glyph-name="ic_arrow_left" unicode="&#xe804;" d="M326 308l224-223-59-59-324 324 324 324 59-59-224-223 507 0 0-84-507 0z" horiz-adv-x="1000" />

<glyph glyph-name="ic_arrow_right" unicode="&#xe805;" d="M674 392l-224 223 59 59 324-324-324-324-59 59 224 223h-507v84h507z" horiz-adv-x="1000" />

<glyph glyph-name="ic_arrow_up_small" unicode="&#xe806;" d="M500 502l177-176-59-59-118 118-118-118-59 59 177 176z" horiz-adv-x="1000" />

<glyph glyph-name="ic_cart" unicode="&#xe807;" d="M833-67h-666c-11 0-22 5-30 12-8 8-12 19-12 30v750c0 11 4 22 12 30 8 7 19 12 30 12h666c11 0 22-5 30-12 8-8 12-19 12-30v-750c0-11-4-22-12-30-8-7-19-12-30-12z m-41 84v666h-584v-666h584z m-417 583v-83c0-33 13-65 37-89 23-23 55-36 88-36 33 0 65 13 88 36 24 24 37 56 37 89v83h83v-83c0-56-22-109-61-148-39-39-92-61-147-61-55 0-108 22-147 61-39 39-61 92-61 148v83h83z" horiz-adv-x="1000" />

<glyph glyph-name="ic_checkbox" unicode="&#xe808;" d="M500-67c-230 0-417 187-417 417 0 230 187 417 417 417 230 0 417-187 417-417 0-230-187-417-417-417z m-41 250l294 295-59 59-235-236-118 118-59-59 177-177z" horiz-adv-x="1000" />

<glyph glyph-name="ic_close" unicode="&#xe809;" d="M500 409l206 206 59-59-206-206 206-206-59-59-206 206-206-206-59 59 206 206-206 206 59 59 206-206z" horiz-adv-x="1000" />

<glyph glyph-name="ic_close_fill" unicode="&#xe80a;" d="M500-67c-230 0-417 187-417 417 0 230 187 417 417 417 230 0 417-187 417-417 0-230-187-417-417-417z m0 476l-118 118-59-59 118-118-118-118 59-59 118 118 118-118 59 59-118 118 118 118-59 59-118-118z" horiz-adv-x="1000" />

<glyph glyph-name="ic_cricle_blank" unicode="&#xe80b;" d="M500-67c-230 0-417 187-417 417 0 230 187 417 417 417 230 0 417-187 417-417 0-230-187-417-417-417z m0 84c88 0 173 35 236 97 62 63 97 148 97 236 0 88-35 173-97 236-63 62-148 97-236 97-88 0-173-35-236-97-62-63-97-148-97-236 0-88 35-173 97-236 63-62 148-97 236-97z" horiz-adv-x="1000" />

<glyph glyph-name="ic_eye_off" unicode="&#xe80c;" d="M389 67l-80 22 33 123c-49 18-95 44-135 78l-90-90-59 59 90 89c-51 61-85 134-99 212l82 15c32-175 185-308 369-308 184 0 337 133 369 308l82-15c-14-78-48-151-99-212l90-89-59-59-90 90c-40-34-85-60-135-78l33-123-80-22-33 123c-52-9-104-9-156 0l-33-123z" horiz-adv-x="1000" />

<glyph glyph-name="ic_eye_on" unicode="&#xe80d;" d="M500 725c225 0 412-162 451-375-39-213-226-375-451-375-225 0-412 162-451 375 39 213 226 375 451 375z m0-667c85 0 167 29 234 82 66 53 113 127 132 210-19 83-66 157-132 210-67 53-149 81-234 81-85 0-167-28-234-81-66-53-113-127-132-210 19-83 66-157 132-210 67-53 149-82 234-82z m0 105c-50 0-97 19-133 54-35 36-54 83-54 133 0 50 19 97 54 133 36 35 83 55 133 55 50 0 97-20 133-55 35-36 55-83 55-133 0-50-20-97-55-133-36-35-83-54-133-54z m0 83c28 0 54 11 74 30 19 20 30 46 30 74 0 28-11 54-30 74-20 19-46 30-74 30-28 0-54-11-74-30-19-20-30-46-30-74 0-28 11-54 30-74 20-19 46-30 74-30z" horiz-adv-x="1000" />

<glyph glyph-name="ic_favorite" unicode="&#xe80e;" d="M844 652c94-95 97-245 9-343l-353-354-353 354c-88 98-85 249 10 343 94 94 245 97 343 9 98 88 249 85 344-9z m-628-59c-63-62-66-162-8-227l292-293 293 293c57 65 54 165-8 227-62 62-162 65-228 8l-175-175-59 59 118 117-3 3c-66 53-162 48-222-12z" horiz-adv-x="1000" />

<glyph glyph-name="ic_favorite_selected" unicode="&#xe80f;" d="M844 652c94-95 97-245 9-343l-353-354-353 354c-88 98-85 249 10 343 73 73 180 91 271 55l-164-164 59-58 177 176 0 1 0-1c98 88 249 85 344-9z" horiz-adv-x="1000" />

<glyph glyph-name="ic_filter" unicode="&#xe810;" d="M417 100h166v83h-166v-83z m-292 500v-83h750v83h-750z m125-292h500v84h-500v-84z" horiz-adv-x="1000" />

<glyph glyph-name="ic_happy_home" unicode="&#xe811;" d="M792 58v384l-292 230-292-230v-384h584z m83-41c0-11-4-22-12-30-8-8-19-12-30-12h-666c-11 0-22 4-30 12-8 8-12 19-12 30v445c0 6 1 12 4 18 3 6 7 11 12 15l333 263c8 5 17 9 26 9 9 0 19-4 26-9l333-263c5-4 9-9 12-15 3-6 4-12 4-18v-445z m-583 333h83c0-33 13-65 37-88 23-24 55-37 88-37 33 0 65 13 88 37 24 23 37 55 37 88h83c0-55-22-108-61-147-39-39-92-61-147-61-55 0-108 22-147 61-39 39-61 92-61 147z" horiz-adv-x="1000" />

<glyph glyph-name="ic_happy_profile" unicode="&#xe812;" d="M500-67c-230 0-417 187-417 417 0 230 187 417 417 417 230 0 417-187 417-417 0-230-187-417-417-417z m0 84c88 0 173 35 236 97 62 63 97 148 97 236 0 88-35 173-97 236-63 62-148 97-236 97-88 0-173-35-236-97-62-63-97-148-97-236 0-88 35-173 97-236 63-62 148-97 236-97z m-208 333h83c0-33 13-65 37-88 23-24 55-37 88-37 33 0 65 13 88 37 24 23 37 55 37 88h83c0-55-22-108-61-147-39-39-92-61-147-61-55 0-108 22-147 61-39 39-61 92-61 147z" horiz-adv-x="1000" />

<glyph glyph-name="ic_info" unicode="&#xe813;" d="M320 767h361c141 0 236-99 236-247v-340c0-147-95-247-236-247h-361c-142 0-237 100-237 247v340c0 148 95 247 237 247z m180-295c-20 0-36 17-36 37 0 20 16 36 36 36 20 0 37-16 37-36 0-20-17-37-37-37z m0-59c20 0 36-16 36-36v-185c0-20-16-36-36-36-20 0-37 16-37 36v185c0 20 17 36 37 36z" horiz-adv-x="1000" />

<glyph glyph-name="ic_logout" unicode="&#xe814;" d="M208 392h334v-84h-334v-125l-208 167 208 167v-125z m-41-292h113c48-42 107-70 170-80 64-9 129 0 187 26 59 27 108 69 143 123 35 54 53 117 53 181 0 64-18 127-53 181-35 54-84 96-143 123-58 26-123 35-187 26-63-10-122-38-170-80h-113c38 52 89 94 147 123 58 29 121 44 186 44 230 0 417-187 417-417 0-230-187-417-417-417-65 0-128 15-186 44-58 29-109 71-147 123z" horiz-adv-x="1000" />

<glyph glyph-name="ic_menu" unicode="&#xe815;" d="M125 683h750v-83h-750v83z m0-291h500v-84h-500v84z m0-292h750v-83h-750v83z" horiz-adv-x="1000" />

<glyph glyph-name="ic_notifications" unicode="&#xe816;" d="M556 683c-10-26-14-55-14-83h-334v-583h584v333c28 0 56 5 83 14v-389c0-11-4-22-12-30-8-7-19-12-30-12h-666c-11 0-22 5-30 12-8 8-12 19-12 30v667c0 11 4 21 12 29 8 8 19 12 30 12h389z m236-166c22 0 43 8 59 24 15 16 24 37 24 59 0 22-9 43-24 59-16 16-37 24-59 24-22 0-44-8-59-24-16-16-25-37-25-59 0-22 9-43 25-59 15-16 37-24 59-24z m0-84c-44 0-87 18-118 49-31 31-49 74-49 118 0 44 18 87 49 118 31 31 74 49 118 49 44 0 86-18 118-49 31-31 48-74 48-118 0-44-17-87-48-118-32-31-74-49-118-49z" horiz-adv-x="1000" />

<glyph glyph-name="ic_notifications_on" unicode="&#xe817;" d="M556 683c-10-26-14-55-14-83h-334v-583h584v333c28 0 56 5 83 14v-389c0-11-4-22-12-30-8-7-19-12-30-12h-666c-11 0-22 5-30 12-8 8-12 19-12 30v667c0 11 4 21 12 29 8 8 19 12 30 12h389z m236-166c22 0 43 8 59 24 15 16 24 37 24 59 0 22-9 43-24 59-16 16-37 24-59 24-22 0-44-8-59-24-16-16-25-37-25-59 0-22 9-43 25-59 15-16 37-24 59-24z m0-84c-44 0-87 18-118 49-31 31-49 74-49 118 0 44 18 87 49 118 31 31 74 49 118 49 44 0 86-18 118-49 31-31 48-74 48-118 0-44-17-87-48-118-32-31-74-49-118-49z" horiz-adv-x="1000" />

<glyph glyph-name="ic_orders" unicode="&#xe818;" d="M360 131l142-90 141 90 77-50-218-139-219 139 77 50v0z m-36 345l99 65-101 65-102-63 104-67h0z m76-50l100-64 100 64-100 65-100-65v0z m177-114l101-65 102 62-104 68-99-65v0z m-77 278l177 115 259-160-183-119 183-119-259-159-177 115-176-115-260 159 183 119-183 119 260 160 176-115v0z m77-49l99-65 104 67-102 63-101-65v0z m-154-229l-99 65-104-68 102-62 101 65z" horiz-adv-x="1000" />

<glyph glyph-name="ic_points" unicode="&#xe819;" d="M500-67c-230 0-417 187-417 417 0 230 187 417 417 417 230 0 417-187 417-417 0-230-187-417-417-417z m0 84c88 0 173 35 236 97 62 63 97 148 97 236 0 88-35 173-97 236-63 62-148 97-236 97-88 0-173-35-236-97-62-63-97-148-97-236 0-88 35-173 97-236 63-62 148-97 236-97z m0 539l206-206-206-206-206 206 206 206z m0-118l-88-88 88-88 88 88-88 88z" horiz-adv-x="1000" />

<glyph glyph-name="ic_radiobutton" unicode="&#xe81a;" d="M500-67c-230 0-417 187-417 417 0 230 187 417 417 417 230 0 417-187 417-417 0-230-187-417-417-417z m0 250c44 0 87 18 118 49 31 31 49 74 49 118 0 44-18 87-49 118-31 31-74 49-118 49-44 0-87-18-118-49-31-31-49-74-49-118 0-44 18-87 49-118 31-31 74-49 118-49z" horiz-adv-x="1000" />

<glyph glyph-name="ic_search" unicode="&#xe81b;" d="M751 158l179-179-59-59-179 179c-66-53-149-82-234-82-207 0-375 168-375 375 0 207 168 375 375 375 207 0 375-168 375-375 1-85-28-168-82-234z m-83 31c53 54 82 127 82 203 0 161-130 291-292 291-161 0-291-130-291-291 0-161 130-292 291-292 76 0 149 29 204 82l6 7z" horiz-adv-x="1000" />

<glyph glyph-name="ic_settings" unicode="&#xe81c;" d="M500 808l396-229v-458l-396-229-396 229v458l396 229z m0-96l-312-181v-362l312-181 313 181v362l-313 181z m0-529c-44 0-87 18-118 49-31 31-49 74-49 118 0 44 18 87 49 118 31 31 74 49 118 49 44 0 87-18 118-49 31-31 49-74 49-118 0-44-18-87-49-118-31-31-74-49-118-49z m0 84c22 0 43 8 59 24 16 16 24 37 24 59 0 22-8 43-24 59-16 16-37 24-59 24-22 0-43-8-59-24-16-16-24-37-24-59 0-22 8-43 24-59 16-16 37-24 59-24z" horiz-adv-x="1000" />

<glyph glyph-name="ic_shield" unicode="&#xe81d;" d="M458 767l304-95c9-3 16-8 22-15 5-8 8-16 8-25v-74h83c11 0 22-4 30-12 7-8 12-18 12-29v-84h-542v84c0 11 4 21 12 29 8 8 19 12 30 12h291v43l-250 78-250-78v-308c0-26 6-51 17-74 12-23 28-43 48-58l8-6 177-121 158 108h-199c-11 0-22 4-30 12-8 8-12 18-12 29v167h542v-167c0-11-5-21-12-29-8-8-19-12-30-12l-134 0c-16-22-36-40-58-56l-225-153-224 153c-33 23-61 54-80 90-19 36-29 76-29 117v339c0 9 3 17 8 25 5 7 13 12 21 15l304 95z" horiz-adv-x="1000" />

<glyph glyph-name="ic_subtract" unicode="&#xe81e;" d="M208 392h584v-84h-584v84z" horiz-adv-x="1000" />

<glyph glyph-name="ic_trash" unicode="&#xe81f;" d="M292 683v84h416v-84h209v-83h-84v-625c0-11-4-22-12-30-8-7-18-12-29-12h-584c-11 0-21 5-29 12-8 8-12 19-12 30v625h-84v83h209z m-42-83v-583h500v583h-500z m125-125h83v-333h-83v333z m167 0h83v-333h-83v333z" horiz-adv-x="1000" />

<glyph glyph-name="sl_facebook" unicode="&#xe820;" d="M500 767c-230 0-417-187-417-417 0-208 153-380 352-412v292h-106v120h106v92c0 104 62 162 157 162 46 0 94-8 94-8v-103h-53c-52 0-68-32-68-65v-78h116l-19-120h-97v-292c199 32 352 204 352 412 0 230-187 417-417 417z" horiz-adv-x="1000" />

<glyph glyph-name="sl_instagram" unicode="&#xe821;" d="M500 767c113 0 127-1 172-3 44-2 74-9 101-19 27-11 51-25 74-48 21-21 37-46 48-74 10-27 17-57 19-101 2-45 3-59 3-172 0-113-1-127-3-172-2-44-9-74-19-101-11-28-27-53-48-74-21-21-46-37-74-48-27-10-57-17-101-19-45-2-59-3-172-3-113 0-127 1-172 3-44 2-74 9-101 19-28 11-53 27-74 48-21 21-37 46-48 74-10 27-17 57-19 101-2 45-3 59-3 172 0 113 1 127 3 172 2 44 9 74 19 101 11 28 27 53 48 74 21 21 46 37 74 48 27 10 57 17 101 19 45 2 59 3 172 3z m0-209c-55 0-108-22-147-61-39-39-61-92-61-147 0-55 22-108 61-147 39-39 92-61 147-61 55 0 108 22 147 61 39 39 61 92 61 147 0 55-22 108-61 147-39 39-92 61-147 61z m271 11c0 14-6 27-15 37-10 9-23 15-37 15-14 0-27-6-37-15-10-10-15-23-15-37 0-14 5-27 15-37 10-10 23-15 37-15 14 0 27 5 37 15 9 10 15 23 15 37z m-271-94c33 0 65-13 88-37 24-23 37-55 37-88 0-33-13-65-37-88-23-24-55-37-88-37-33 0-65 13-88 37-24 23-37 55-37 88 0 33 13 65 37 88 23 24 55 37 88 37z" horiz-adv-x="1000" />

<glyph glyph-name="sl_linkedin" unicode="&#xe822;" d="M289 642c0-22-9-44-24-59-16-16-37-25-59-25-22 0-43 9-59 25-16 15-24 37-24 59 0 22 8 43 24 59 16 15 37 24 59 24 22 0 43-9 59-24 15-16 24-37 24-59z m3-145h-167v-522h167v522z m263 0h-166v-522h164v274c0 152 199 166 199 0v-274h165v330c0 258-294 248-364 122l2 70z" horiz-adv-x="1000" />

<glyph glyph-name="sl_tiktok" unicode="&#xe823;" d="M519 766c47 1 94 0 141 1 2-53 22-108 63-145 40-39 97-56 152-62v-140c-52 2-104 12-151 34-21 9-40 20-58 32-1-102 0-203-1-304-3-49-19-97-49-137-47-67-128-110-212-111-52-3-103 10-147 35-73 42-124 118-131 199-1 17-1 34-1 52 7 65 41 129 93 172 60 50 143 74 221 59 1-51-1-102-1-154-36 11-77 8-109-13-22-14-40-36-49-60-7-18-5-37-5-56 9-57 66-105 126-100 41 0 79 23 100 56 7 11 14 23 15 37 3 62 2 124 2 186 1 140 0 279 1 419z" horiz-adv-x="1000" />

<glyph glyph-name="sl_twitter" unicode="&#xe824;" d="M923 614c-31-14-65-23-100-27 37 22 64 56 77 96-34-20-72-34-111-42-26 28-61 47-98 53-38 6-77 0-111-18-34-18-61-47-77-82-16-35-19-74-11-112-69 4-137 22-198 53-62 31-117 75-161 129-15-26-23-57-23-87 0-61 30-114 77-145-27 0-54 8-79 21v-2c0-40 14-79 40-110 25-31 61-53 100-61-26-7-53-8-79-3 11-34 33-65 62-86 30-22 65-34 101-35-36-28-77-49-122-61-44-13-90-16-136-11 80-51 173-78 267-78 321 0 496 265 496 496 0 7 0 15 0 22 34 25 63 55 87 90l-1 0z" horiz-adv-x="1000" />

<glyph glyph-name="sl_whatsapp" unicode="&#xe825;" d="M84-67l56 207c-37 64-57 136-57 210 0 230 187 417 417 417 230 0 417-187 417-417 0-230-187-417-417-417-74 0-146 20-210 57l-206-57z m266 613c-6-1-11-2-16-5-4-2-8-5-12-9-5-5-8-9-11-13-15-20-24-45-23-70 0-20 5-40 13-59 17-37 45-77 82-114 9-9 18-18 27-26 46-40 101-70 160-85l24-4c8 0 16 0 23 1 12 0 24 4 35 9 7 4 10 6 16 9 0 0 2 2 5 4 6 4 9 7 14 12 3 4 6 8 9 13 3 7 6 20 8 30 1 9 0 13 0 16 0 4-4 9-8 11l-24 11c0 0-36 16-58 26-3 1-5 1-8 1-3 1-6 0-8-1-3 0-5-2-8-4v0c0 0-3-2-33-39-1-2-4-4-7-5-2-1-5-1-8 0-3 1-5 2-8 3-5 2-7 3-10 4l-1 0c-24 11-46 25-65 42-5 5-10 10-15 14-17 16-31 34-43 53l-2 4c-2 3-3 6-4 9-2 6 2 11 2 11 0 0 10 11 15 17 4 5 8 10 11 15 5 8 6 16 4 23-12 28-24 57-36 85-3 5-10 9-17 10-2 0-4 1-7 1-5 0-11 0-16 0v0z" horiz-adv-x="1000" />

<glyph glyph-name="sl_youtube" unicode="&#xe826;" d="M898 579c19-74 19-229 19-229 0 0 0-155-19-229-11-41-42-74-81-84-71-20-317-20-317-20 0 0-245 0-317 20-39 11-70 43-81 84-19 74-19 229-19 229 0 0 0 155 19 229 11 41 42 74 81 85 72 19 317 19 317 19 0 0 246 0 317-19 39-12 70-44 81-85z m-481-375l250 146-250 146v-292z" horiz-adv-x="1000" />

<glyph glyph-name="apple-logo" unicode="&#xe827;" d="M887 82c-15-33-32-64-52-92-27-39-49-66-66-81-27-24-55-36-85-37-22 0-49 6-79 19-31 12-59 18-85 18-27 0-56-6-87-18-31-13-57-19-76-20-29-1-58 11-87 38-18 17-42 44-69 83-30 42-55 91-74 146-20 60-31 118-31 174 0 64 14 120 42 166 22 38 51 67 87 89 37 21 76 32 118 33 24 0 54-7 92-21 37-15 61-22 72-22 8 0 35 9 80 25 43 16 80 22 109 20 81-7 142-39 182-96-72-44-108-105-107-183 1-61 23-112 66-153 20-18 42-33 67-43-6-16-11-30-17-45z m-185 728c0-48-18-93-53-134-42-49-93-78-148-73-1 5-1 12-1 18 0 46 20 95 56 135 17 21 40 38 67 51 28 14 54 21 78 22 1-6 1-13 1-19z" horiz-adv-x="1000" />
</font>
</defs>
</svg>
