<svg width="140" height="32" viewBox="0 0 140 32" fill="none" xmlns="http://www.w3.org/2000/svg">
<path d="M20.0079 5.74394C20.2548 5.38987 20.6196 5.14424 21.0457 5.04511C21.3203 4.98127 21.751 4.98595 21.8896 5.05433C22.1769 5.19611 22.2546 5.65085 22.0851 6.19906C21.9534 6.62469 21.9584 6.95015 22.1007 7.21697C22.2645 7.52413 22.396 7.57292 22.8739 7.50396C23.4956 7.4142 23.9964 7.55858 24.4739 7.9653C24.9923 8.40686 24.8663 8.84707 24.1 9.27189C23.6151 9.54068 23.4022 9.79022 23.329 10.1754C23.294 10.3597 23.2949 10.3611 23.7828 10.8252C24.2004 11.2224 24.2874 11.3326 24.3796 11.5798C24.5072 11.9222 24.5599 12.4423 24.4858 12.6294C24.3587 12.9506 23.9242 13.0316 23.2613 12.8575C22.7883 12.7333 22.6044 12.7378 22.2927 12.8811C21.955 13.0363 21.916 13.1282 21.9734 13.6339C21.9984 13.8541 22.0014 14.1426 21.9802 14.2751C21.9074 14.7302 21.5234 15.3263 21.1952 15.4939C20.8841 15.6528 20.5171 15.4285 20.1965 14.8836C19.9555 14.4741 19.7279 14.2406 19.4633 14.1315C19.2181 14.0303 19.1702 14.0469 18.9991 14.2925C18.5884 14.8818 18.2221 15.1254 17.7453 15.1263C17.1944 15.1273 17.0513 14.9214 17.0513 14.1276C17.0513 13.6313 17.0433 13.589 16.9112 13.3834C16.8342 13.2634 16.6675 13.0814 16.5408 12.9789C16.3135 12.795 16.3074 12.7932 16.0937 12.8497C15.8011 12.9269 15.2277 12.9221 15.0302 12.8406C14.8 12.7455 14.5068 12.4769 14.4266 12.2874C14.3136 12.0202 14.3843 11.866 14.8297 11.4088C15.2864 10.94 15.3652 10.7628 15.33 10.2825C15.3072 9.97158 15.3579 10.0362 14.7021 9.48258C14.3849 9.2148 14.2681 8.97254 14.2667 8.57948C14.2658 8.33018 14.2858 8.25784 14.3894 8.13628C14.5584 7.93794 14.7477 7.88756 15.2919 7.89591C15.8259 7.90411 16.0206 7.83312 16.3275 7.51819C16.5603 7.27936 16.6207 7.12122 16.5583 6.91415C16.5318 6.82608 16.5088 6.59699 16.5071 6.40502C16.5037 6.00154 16.609 5.73477 16.8707 5.48436C17.2308 5.1397 17.5166 5.19857 18.0715 5.73173C18.5153 6.15828 18.6915 6.22608 19.2392 6.18106C19.6604 6.14646 19.771 6.08358 20.0079 5.74394Z" fill="#1C3F3A"/>
<path d="M33.9576 8.69033C34.2147 8.52211 34.4581 8.37221 34.4984 8.35725C34.7815 8.25215 35.1732 8.38766 35.3566 8.65418C35.4602 8.80465 35.4758 8.88201 35.4758 9.24279C35.4758 9.80693 35.3402 10.3085 35.0135 10.9525C34.3494 12.2614 33.2494 13.2899 32.0949 13.6813C30.8974 14.0872 29.546 13.9156 28.492 13.2237C28.0605 12.9405 27.4313 12.289 27.1704 11.8555C26.77 11.1899 26.6217 10.4493 26.8234 10.1226C27.0398 9.77227 27.3459 9.7077 27.942 9.88665C28.5309 10.0634 29.0946 10.1249 29.8312 10.0927C30.8707 10.0472 31.7514 9.8131 32.8824 9.28168C33.2167 9.12465 33.7005 8.85851 33.9576 8.69033Z" fill="#1C3F3A"/>
<path d="M33.3359 15.7093C33.3712 15.1201 33.5933 14.721 33.9853 14.5424C34.3284 14.386 34.5829 14.422 36.0464 14.834C38.6064 15.5547 42.8283 16.8222 43.05 16.9367C43.393 17.1137 43.5973 17.483 43.6271 17.9798C43.6643 18.5986 43.469 18.9929 43.0171 19.2113C42.7588 19.336 42.7356 19.3386 42.1803 19.3035C40.9371 19.2249 40.8484 19.2753 40.3667 20.3345C39.816 21.5455 39.2648 22.3426 38.3607 23.2356C36.9012 24.6771 35.0598 25.69 32.0833 26.6886C30.3985 27.2538 28.42 27.6338 26.7303 27.7165C23.4426 27.8775 20.4596 27.0835 17.7355 25.3221C16.7096 24.6588 14.3169 22.8508 13.1172 21.8325C11.7609 20.6813 11.4403 20.2893 10.6928 18.8682C10.4698 18.4443 10.2093 18.0121 10.1139 17.9078C9.84205 17.6102 9.75218 17.5901 8.8375 17.6215C7.85039 17.6555 7.54646 17.6055 7.27669 17.3648C7.14078 17.2435 7.07475 17.134 7.03228 16.9592C6.96616 16.687 7.00623 16.1889 7.11043 15.9881C7.24971 15.7195 7.38308 15.6833 9.5497 15.3252C14.1195 14.5699 14.6142 14.507 14.9387 14.6397C15.2356 14.7611 15.6524 15.4611 15.6247 15.7915C15.6113 15.9505 15.5806 15.9881 15.3562 16.1202C14.9827 16.34 14.5101 16.4768 13.8502 16.5558C13.0989 16.6457 12.784 16.7345 12.6588 16.8917C12.4786 17.1179 12.496 17.1379 14.0752 18.5143C18.214 22.1218 20.253 23.5527 22.477 24.4101C25.5101 25.5796 28.9036 25.3745 32.0132 23.834C33.0364 23.3271 33.7391 22.7986 35.1396 21.4825C36.1652 20.5187 36.2731 20.4 36.4665 20.0229C36.671 19.624 36.8933 18.7067 36.8928 18.2636C36.8922 17.7965 36.6401 17.4426 36.1547 17.2275C35.8839 17.1075 35.5986 17.0312 34.2582 16.7204C33.5072 16.5463 33.2994 16.3184 33.3359 15.7093Z" fill="#1C3F3A"/>
<path d="M60.7944 13.3388C57.7353 13.3388 56.2058 14.2565 55.5736 15.4189C55.492 15.5209 55.3492 15.5209 55.3492 15.3374V10.0757C55.3492 9.74943 55.1657 9.56589 54.8394 9.56589H52.9835C52.6572 9.56589 52.4737 9.74943 52.4737 10.0757V23.3318C52.4737 23.6581 52.6572 23.8416 52.9835 23.8416H54.8394C55.1657 23.8416 55.3492 23.6581 55.3492 23.3318V18.478C55.3492 16.4182 56.6748 15.7248 59.5912 15.7248C62.5075 15.7248 63.7515 16.4182 63.7515 18.478V23.3318C63.7515 23.6581 63.9351 23.8416 64.2614 23.8416H66.1376C66.4639 23.8416 66.6474 23.6581 66.6474 23.3318V18.478C66.6474 15.1538 65.1587 13.3388 60.7944 13.3388Z" fill="#1C3F3A"/>
<path d="M73.4502 23.9844H74.7758C76.1626 23.9844 78.406 23.6785 79.0382 21.9858C79.2013 23.2706 80.0579 23.8416 81.4242 23.8416H81.6282C82.6887 23.8416 83.3821 23.3318 83.3821 22.5976V22.2509C83.3821 21.9246 83.1985 21.741 82.8722 21.741H82.5459C82.0972 21.741 81.8117 21.4963 81.8117 21.0069V17.0708C81.8117 14.542 79.8947 13.3388 75.2245 13.3388C72.5733 13.3388 71.0642 13.7466 70.4116 14.0525C69.8405 14.3381 69.7386 14.6032 69.7386 15.113V15.6841C69.7386 16.1735 70.1056 16.2755 70.4319 16.2347C71.4516 16.0715 72.6549 15.6841 75.1429 15.6841C77.8145 15.6841 78.9974 16.1123 78.9974 17.2952V17.3971C78.9974 17.5195 78.9158 17.6011 78.7934 17.6011H73.4502C70.7175 17.6011 68.6781 18.2945 68.6781 20.701C68.6781 23.0462 70.7175 23.9844 73.4502 23.9844ZM73.593 21.6595C72.4509 21.6595 71.4516 21.5167 71.4516 20.6194C71.4516 19.7424 72.4509 19.6201 73.593 19.6201H78.7934C78.9158 19.6201 78.9974 19.7016 78.9974 19.824V20.3135C78.9974 21.5983 77.3863 21.6595 74.6127 21.6595H73.593Z" fill="#1C3F3A"/>
<path d="M99.881 18.6616C99.8606 15.2354 98.3311 13.3184 93.0083 13.3184C90.1124 13.3184 88.7052 13.8894 87.9914 14.9091V13.971C87.9914 13.6447 87.8079 13.4611 87.4816 13.4611H85.6257C85.2994 13.4611 85.1159 13.6447 85.1159 13.971V27.227C85.1159 27.5533 85.2994 27.7368 85.6257 27.7368H87.4816C87.8079 27.7368 87.9914 27.5533 87.9914 27.227V22.4344C88.7052 23.4337 90.1531 23.9844 93.0083 23.9844C98.3311 23.9844 99.9014 22.0673 99.881 18.6616ZM92.3761 21.5779C89.215 21.5779 87.8282 20.9865 87.8282 18.6616C87.8282 16.3367 89.215 15.7248 92.3761 15.7248C95.5371 15.7248 96.9647 16.3367 96.9647 18.6616C96.9647 20.9865 95.5371 21.5779 92.3761 21.5779Z" fill="#1C3F3A"/>
<path d="M116.69 18.6616C116.67 15.2354 115.14 13.3184 109.817 13.3184C106.921 13.3184 105.514 13.8894 104.8 14.9091V13.971C104.8 13.6447 104.617 13.4611 104.291 13.4611H102.435C102.108 13.4611 101.925 13.6447 101.925 13.971V27.227C101.925 27.5533 102.108 27.7368 102.435 27.7368H104.291C104.617 27.7368 104.8 27.5533 104.8 27.227V22.4344C105.514 23.4337 106.962 23.9844 109.817 23.9844C115.14 23.9844 116.71 22.0673 116.69 18.6616ZM109.185 21.5779C106.024 21.5779 104.637 20.9865 104.637 18.6616C104.637 16.3367 106.024 15.7248 109.185 15.7248C112.346 15.7248 113.774 16.3367 113.774 18.6616C113.774 20.9865 112.346 21.5779 109.185 21.5779Z" fill="#1C3F3A"/>
<path d="M133.195 13.4815H130.972C130.707 13.4815 130.524 13.6039 130.36 13.8282L125.507 20.7621C125.425 20.8845 125.303 20.8845 125.221 20.7621L120.388 13.8282C120.225 13.6039 120.041 13.4815 119.776 13.4815H117.553C117.145 13.4815 116.962 13.7466 117.206 14.0933L123.773 23.3318L121.122 27.1046C120.857 27.4921 121.04 27.7164 121.448 27.7164H123.427C123.692 27.7164 123.875 27.6145 124.038 27.3901L126.73 23.6173C126.812 23.5561 126.873 23.4745 126.934 23.3929L133.542 14.0933C133.787 13.7466 133.603 13.4815 133.195 13.4815Z" fill="#1C3F3A"/>
</svg>
